<svg width="33" height="24" viewBox="0 0 33 24" fill="none" xmlns="http://www.w3.org/2000/svg">
<path d="M21 0C24.1826 0 27.2348 1.26428 29.4853 3.51472C31.7357 5.76516 33 8.8174 33 12C33 15.1826 31.7357 18.2348 29.4853 20.4853C27.2348 22.7357 24.1826 24 21 24C17.8174 24 14.7652 22.7357 12.5147 20.4853C10.2643 18.2348 9 15.1826 9 12C9 8.8174 10.2643 5.76516 12.5147 3.51472C14.7652 1.26428 17.8174 0 21 0ZM21 3C18.6131 3 16.3239 3.94821 14.636 5.63604C12.9482 7.32387 12 9.61305 12 12C12 14.3869 12.9482 16.6761 14.636 18.364C16.3239 20.0518 18.6131 21 21 21C23.3869 21 25.6761 20.0518 27.364 18.364C29.0518 16.6761 30 14.3869 30 12C30 9.61305 29.0518 7.32387 27.364 5.63604C25.6761 3.94821 23.3869 3 21 3ZM19.5 6H21.75V11.67L25.245 15.165L23.655 16.755L19.5 12.6V6ZM1.5 21C1.10218 21 0.720644 20.842 0.43934 20.5607C0.158035 20.2794 0 19.8978 0 19.5C0 19.1022 0.158035 18.7206 0.43934 18.4393C0.720644 18.158 1.10218 18 1.5 18H7.245C7.71 19.065 8.31 20.07 9 21H1.5ZM3 13.5C2.60218 13.5 2.22064 13.342 1.93934 13.0607C1.65804 12.7794 1.5 12.3978 1.5 12C1.5 11.6022 1.65804 11.2206 1.93934 10.9393C2.22064 10.658 2.60218 10.5 3 10.5H6.075L6 12L6.075 13.5H3ZM4.5 6C4.10218 6 3.72064 5.84196 3.43934 5.56066C3.15804 5.27936 3 4.89782 3 4.5C3 4.10218 3.15804 3.72064 3.43934 3.43934C3.72064 3.15804 4.10218 3 4.5 3H9C8.31 3.93 7.71 4.935 7.245 6H4.5Z" fill="white"/>
</svg>
