<svg width="24" height="24" viewBox="0 0 24 24">
<path fill-rule="evenodd" clip-rule="evenodd" d="M0.120506 23.2951C0.0977986 23.3767 0.0970425 23.463 0.118314 23.5451C0.139585 23.6271 0.182131 23.7022 0.241657 23.7625C0.301184 23.8229 0.375586 23.8665 0.457353 23.889C0.53912 23.9114 0.62536 23.9119 0.70737 23.8904L6.25908 22.4395C8.02049 23.3935 9.99196 23.8934 11.9952 23.894H12C18.6109 23.894 24 18.5363 24 11.9494C24.004 10.3787 23.6957 8.82282 23.0928 7.37238C22.4899 5.92193 21.6046 4.60586 20.4884 3.50075C19.3741 2.38657 18.0505 1.5037 16.5937 0.902916C15.1369 0.302133 13.5758 -0.00470404 12 5.45107e-05C5.38903 5.45107e-05 0 5.35775 0 11.9434C0 14.039 0.551917 16.0972 1.60273 17.9133L0.120506 23.2951ZM8.19681 6.23021C8.41734 6.23624 8.66197 6.24829 8.89454 6.76405C9.04879 7.10749 9.30788 7.74015 9.51997 8.25592C9.68506 8.6572 9.82003 8.98739 9.85377 9.05487C9.9321 9.20912 9.9791 9.38626 9.87787 9.59474L9.84413 9.66463C9.76219 9.83334 9.70434 9.95384 9.56697 10.1105L9.39464 10.3154C9.29221 10.4407 9.18978 10.5636 9.10302 10.6504C8.94756 10.8046 8.78729 10.9709 8.96564 11.2794C9.14399 11.5879 9.77062 12.6026 10.6949 13.4208C11.3709 14.0305 12.1466 14.5196 12.9881 14.8669C13.0725 14.903 13.1408 14.9336 13.193 14.9585C13.5027 15.1127 13.6871 15.0886 13.8654 14.8813C14.045 14.6729 14.6403 13.9787 14.8499 13.6702C15.0524 13.3618 15.2597 13.41 15.5465 13.516C15.8333 13.6232 17.3589 14.3716 17.6686 14.5246L17.8409 14.609C18.0566 14.7114 18.2024 14.7825 18.2651 14.8862C18.3422 15.0175 18.3422 15.6333 18.0867 16.3587C17.824 17.0818 16.5599 17.7759 15.9875 17.8289L15.8248 17.8482C15.2994 17.9109 14.6342 17.9928 12.2627 17.0589C9.33921 15.9092 7.40991 13.0581 7.02068 12.4809L6.95681 12.3893L6.95078 12.3796C6.77243 12.1422 5.68667 10.6901 5.68667 9.19104C5.68667 7.75702 6.39404 7.00988 6.7158 6.67006L6.77243 6.60981C6.87658 6.49216 7.00382 6.39721 7.14625 6.33087C7.28868 6.26452 7.44324 6.22821 7.60031 6.22419C7.80878 6.22419 8.01846 6.22419 8.19681 6.23021Z" fill="currentColor"/>
</svg>
